<svg width="147" height="52" fill="none" xmlns="http://www.w3.org/2000/svg"><path d="M19.748 30.595c-1.015-.262-1.922-.452-3.085-.696 0 2.991-.04 5.804.014 8.615.036 1.867-.104 3.876.393 5.634.642 2.27 1.757 3.548 2.487 4.058.73.51.873 1.085.73 1.6-.13.465-.73.863-1.454.86-5.018.068-10.038.065-15.057.003-.913-.012-1.295-.543-1.408-.86-.178-.5.164-1.252.727-1.604 2.69-1.807 2.915-4.335 2.889-7.3-.09-10.103-.045-20.208-.03-30.313.004-2.294-.784-4.113-2.715-5.48-.488-.345-1.01-1.288-.855-1.728.198-.568 1.037-1.252 1.638-1.29 6.527-.419 13.06-.922 19.595-.978 3.86-.033 7.608.93 10.823 3.435 5.203 4.054 5.342 12.943.714 17.501-1.736 1.71-3.912 2.976-5.95 4.492 4.316 1.347 5.04 5.527 6.5 9.15 1.219 3.025 2.052 6.298 3.347 9.288.485 1.121.787 2.15 2.142 2.706 1.356.557 1.761 1.546 1.487 2.236-.274.69-.982.837-1.807.837-.824 0-5.64.003-8.428 0-2.475-.004-3.25-.583-4.155-2.975-1.314-3.47-2.487-6.994-3.884-10.429-1.026-2.525-1.968-5.18-4.657-6.762Zm4.02-6.755c1.65-1.605 2.24-2.838 2.427-4.37.354-2.894.213-5.893-.117-8.804-.176-1.547-.974-3.137-1.86-4.464-1.073-1.606-2.804-2.289-4.794-1.831-1.733.398-2.457 1.772-2.661 3.332a9.672 9.672 0 0 0-.086 1.252c-.022 5.329-.036 10.659.032 15.987 0 1.017 0 1.055 1.053 1.017 2.082-.075 4.206-.368 6.006-2.119ZM117.083 36.72c-.853-3.888-.113-7.464 1.344-10.883 2.172-5.1 5.786-8.631 11.475-9.613 4.374-.755 8.183.659 11.222 3.65 4.677 4.6 6.411 10.27 5.486 16.813-.739 5.236-3.05 9.543-7.336 12.59-5.521 3.923-12.414 3.03-17.127-1.917-2.822-2.961-4.543-6.433-5.064-10.64Zm14.704 11.432c1.423 0 2.481-2.32 2.744-3.082.817-2.373 1.368-4.375 1.606-6.867.302-3.175.207-5.079-.133-8.253-.232-2.173-.745-5.277-1.524-7.052-.494-1.125-1.417-3.08-2.62-3.08s-2.325 1.802-2.833 3.08c-1.315 3.304-1.355 4.824-1.512 7.052-.266 3.775-.424 4.49 0 8.253.256 2.279.546 4.054 1.518 6.867.367 1.062 1.332 3.082 2.754 3.082Z" fill="#000"/><path d="M49.096 18.053c3.716-2.94 9.649-2.778 14.06.615 2.553 1.964 3.757 4.82 4.375 7.913.171.857.254 1.733.34 2.604.154 1.577-.638 2.194-2.169 2.184-4.519-.029-9.038-.01-13.558-.008H50.99c.342 2.963.655 5.387 1.527 7.924 1.835 5.337 7.776 6.465 12 3.569.816-.56 2.127-1.484 2.642-.829.356.453.05 1.969-.364 2.803-2.155 4.336-5.88 6.514-10.602 6.827-5.36.356-9.41-2.075-12.084-6.62-4.098-6.965-3.093-18.605 2.833-24.983a17.949 17.949 0 0 1 2.155-1.999Zm8.736 6.205c-.137-.698-.198-1.422-.429-2.088-.419-1.21-.954-2.456-2.5-2.457-1.565-.001-2.584 1.118-2.933 2.457-.46 1.768-.526 3.583-.878 5.421h7.083c-.122-1.087-.233-2.064-.343-3.333ZM90.38 17.99c0 1.573-.461 2.026-2.202 2.034-1.442.006-2.99.004-4.56.004v1.491c-.007 6.883-.005 13.765-.005 20.648 0 .277.018.509.018.824 0 1.884.815 2.584 1.351 2.687 1.295.25 2.21.03 3.05-.912.604-.679 1.672-.984 2.167-.34.232.302.124 1.462-.163 2.021C87.623 51.14 82.59 52.5 78.26 51.33c-3.183-.86-5.358-3.796-5.362-7.116-.008-7.438-.002-14.876-.002-22.313v-1.877h-3.069c-1.007 0-1.465-.71-1.51-1.132-.107-1.007.693-1.496 1.213-1.785 4.651-2.585 8.18-6.014 10.74-10.689.427-.78 1.108-1.693 2.247-1.38 1.096.3 1.111 1.19 1.104 2.113-.022 2.885-.008 5.771-.008 8.872h4.852c1.086 0 1.915.59 1.915 1.966ZM105.083 25.555c-.041 6.08-.17 10.437.052 16.366.089 2.37.672 4.657 1.822 5.979.442.508.85 1.1.63 1.86-.198.684-1.05.88-1.698.892-4.012.078-8.027.077-12.04 0-.776-.015-1.515-.425-1.705-.887-.258-.63-.078-1.312.535-1.865 1.565-1.717 2.322-3.681 2.318-5.975-.005-4.272.033-8.546-.015-12.818-.025-2.23-.365-4.36-2.348-5.88-.57-.436-.678-1.124-.544-1.564.198-.65.833-.845 1.347-.944 3.38-.654 6.472-1.79 8.85-4.442.459-.512 1.037-.696 1.58-.45.493.223.823 1.01.887 1.553.099.848.009 1.65-.106 2.523-.061.46-.239 1.693-.304 2.152.254.067.208.068.254-.05.126-.318 1.355-2.342 2.034-3.263 1.982-2.688 5.733-3.46 8.129-1.74 2.751 1.975 2.776 7.588-.166 9.158-1.075.574-2.765.73-4.108.148-.762-.33-1.451-1.038-2.212-1.492-1.211-.723-2.313-.714-3.192.74Z" fill="#000"/></svg>